<mxfile host="app.diagrams.net" modified="2022-09-23T08:54:59.718Z" agent="5.0 (Windows)" etag="EmtBjmCBFuasKSN3PVLg" version="20.3.1" type="github">
  <diagram id="kgpKYQtTHZ0yAKxKKP6v" name="Page-1">
    <mxGraphModel dx="1390" dy="839" grid="1" gridSize="10" guides="1" tooltips="1" connect="1" arrows="1" fold="1" page="1" pageScale="1" pageWidth="1169" pageHeight="1654" math="0" shadow="0">
      <root>
        <mxCell id="0" />
        <mxCell id="1" parent="0" />
        <mxCell id="4muc2TcrfXr4DINt9mYG-235" value="" style="ellipse;whiteSpace=wrap;html=1;strokeWidth=2;fillWeight=2;hachureGap=8;fillColor=#B266FF;fillStyle=hachure;sketch=1;strokeColor=#000000;fontSize=14;" vertex="1" parent="1">
          <mxGeometry x="330" y="377.5" width="320" height="65" as="geometry" />
        </mxCell>
        <mxCell id="4muc2TcrfXr4DINt9mYG-234" value="" style="ellipse;whiteSpace=wrap;html=1;strokeWidth=2;fillWeight=2;hachureGap=8;fillColor=#B266FF;fillStyle=hachure;sketch=1;strokeColor=#000000;fontSize=14;" vertex="1" parent="1">
          <mxGeometry x="550" y="1107.5" width="240" height="65" as="geometry" />
        </mxCell>
        <mxCell id="4muc2TcrfXr4DINt9mYG-118" style="edgeStyle=orthogonalEdgeStyle;rounded=0;orthogonalLoop=1;jettySize=auto;html=1;exitX=1;exitY=0.5;exitDx=0;exitDy=0;" edge="1" parent="1" source="4muc2TcrfXr4DINt9mYG-120" target="4muc2TcrfXr4DINt9mYG-130">
          <mxGeometry relative="1" as="geometry">
            <mxPoint x="360.0000000000002" y="330" as="targetPoint" />
          </mxGeometry>
        </mxCell>
        <mxCell id="4muc2TcrfXr4DINt9mYG-119" style="edgeStyle=orthogonalEdgeStyle;rounded=0;orthogonalLoop=1;jettySize=auto;html=1;exitX=1;exitY=0.5;exitDx=0;exitDy=0;entryX=0.5;entryY=1;entryDx=0;entryDy=0;" edge="1" parent="1" source="4muc2TcrfXr4DINt9mYG-120" target="4muc2TcrfXr4DINt9mYG-139">
          <mxGeometry relative="1" as="geometry" />
        </mxCell>
        <mxCell id="4muc2TcrfXr4DINt9mYG-120" value="Sentence collector website" style="rounded=1;whiteSpace=wrap;html=1;fillColor=#dae8fc;arcSize=50;strokeColor=#6c8ebf;" vertex="1" parent="1">
          <mxGeometry x="200" y="310" width="120" height="40" as="geometry" />
        </mxCell>
        <mxCell id="4muc2TcrfXr4DINt9mYG-121" style="edgeStyle=orthogonalEdgeStyle;rounded=0;orthogonalLoop=1;jettySize=auto;html=1;exitX=1;exitY=0.5;exitDx=0;exitDy=0;entryX=0;entryY=0.5;entryDx=0;entryDy=0;" edge="1" parent="1" source="4muc2TcrfXr4DINt9mYG-122" target="4muc2TcrfXr4DINt9mYG-127">
          <mxGeometry relative="1" as="geometry" />
        </mxCell>
        <mxCell id="4muc2TcrfXr4DINt9mYG-122" value="Sentence extractor" style="rounded=1;whiteSpace=wrap;html=1;fillColor=#dae8fc;arcSize=50;strokeColor=#6c8ebf;" vertex="1" parent="1">
          <mxGeometry x="200" y="390" width="120" height="40" as="geometry" />
        </mxCell>
        <mxCell id="4muc2TcrfXr4DINt9mYG-123" style="edgeStyle=orthogonalEdgeStyle;rounded=0;orthogonalLoop=1;jettySize=auto;html=1;exitX=1;exitY=0.5;exitDx=0;exitDy=0;entryX=0.5;entryY=0;entryDx=0;entryDy=0;" edge="1" parent="1" source="4muc2TcrfXr4DINt9mYG-125" target="4muc2TcrfXr4DINt9mYG-163">
          <mxGeometry relative="1" as="geometry" />
        </mxCell>
        <mxCell id="4muc2TcrfXr4DINt9mYG-124" value="direct pull request" style="edgeLabel;html=1;align=center;verticalAlign=middle;resizable=0;points=[];" vertex="1" connectable="0" parent="4muc2TcrfXr4DINt9mYG-123">
          <mxGeometry x="-0.221" y="-1" relative="1" as="geometry">
            <mxPoint as="offset" />
          </mxGeometry>
        </mxCell>
        <mxCell id="4muc2TcrfXr4DINt9mYG-125" value="bulk upload" style="rounded=1;whiteSpace=wrap;html=1;fillColor=#dae8fc;arcSize=50;strokeColor=#6c8ebf;" vertex="1" parent="1">
          <mxGeometry x="200" y="470" width="120" height="40" as="geometry" />
        </mxCell>
        <mxCell id="4muc2TcrfXr4DINt9mYG-127" value="any treatment ?" style="rounded=0;whiteSpace=wrap;html=1;fillColor=#f5f5f5;fontColor=#333333;strokeColor=#666666;" vertex="1" parent="1">
          <mxGeometry x="360" y="390" width="120" height="40" as="geometry" />
        </mxCell>
        <mxCell id="4muc2TcrfXr4DINt9mYG-132" value="" style="shape=actor;whiteSpace=wrap;html=1;fillColor=none;" vertex="1" parent="1">
          <mxGeometry x="160" y="270" width="20" height="30" as="geometry" />
        </mxCell>
        <mxCell id="4muc2TcrfXr4DINt9mYG-133" value="User add sentences &lt;br&gt;(1 by 1)" style="text;html=1;strokeColor=none;fillColor=none;align=left;verticalAlign=middle;whiteSpace=wrap;rounded=0;" vertex="1" parent="1">
          <mxGeometry x="190" y="270" width="100" height="30" as="geometry" />
        </mxCell>
        <mxCell id="4muc2TcrfXr4DINt9mYG-134" value="automated database scraping" style="text;html=1;strokeColor=none;fillColor=none;align=left;verticalAlign=middle;whiteSpace=wrap;rounded=0;" vertex="1" parent="1">
          <mxGeometry x="190" y="360" width="110" height="30" as="geometry" />
        </mxCell>
        <mxCell id="4muc2TcrfXr4DINt9mYG-135" value="User add sentences (per thousands)" style="text;html=1;strokeColor=none;fillColor=none;align=left;verticalAlign=middle;whiteSpace=wrap;rounded=0;" vertex="1" parent="1">
          <mxGeometry x="190" y="440" width="120" height="30" as="geometry" />
        </mxCell>
        <mxCell id="4muc2TcrfXr4DINt9mYG-136" value="" style="shape=actor;whiteSpace=wrap;html=1;fillColor=none;" vertex="1" parent="1">
          <mxGeometry x="160" y="440" width="20" height="30" as="geometry" />
        </mxCell>
        <mxCell id="4muc2TcrfXr4DINt9mYG-137" value="" style="shape=datastore;whiteSpace=wrap;html=1;fillColor=none;" vertex="1" parent="1">
          <mxGeometry x="160" y="360" width="30" height="30" as="geometry" />
        </mxCell>
        <mxCell id="4muc2TcrfXr4DINt9mYG-141" style="edgeStyle=orthogonalEdgeStyle;rounded=0;orthogonalLoop=1;jettySize=auto;html=1;fontSize=10;" edge="1" parent="1" source="4muc2TcrfXr4DINt9mYG-142" target="4muc2TcrfXr4DINt9mYG-143">
          <mxGeometry relative="1" as="geometry" />
        </mxCell>
        <mxCell id="4muc2TcrfXr4DINt9mYG-142" value="Common Voice website shows sentences and record human voices" style="rounded=0;whiteSpace=wrap;html=1;fillColor=#f8cecc;strokeColor=#b85450;" vertex="1" parent="1">
          <mxGeometry x="190" y="630" width="150" height="70" as="geometry" />
        </mxCell>
        <mxCell id="4muc2TcrfXr4DINt9mYG-144" value="" style="group" vertex="1" connectable="0" parent="1">
          <mxGeometry x="150" y="600" width="50" height="50" as="geometry" />
        </mxCell>
        <mxCell id="4muc2TcrfXr4DINt9mYG-145" value="" style="ellipse;whiteSpace=wrap;html=1;aspect=fixed;fontSize=10;" vertex="1" parent="4muc2TcrfXr4DINt9mYG-144">
          <mxGeometry width="50" height="50" as="geometry" />
        </mxCell>
        <mxCell id="4muc2TcrfXr4DINt9mYG-146" value="" style="ellipse;whiteSpace=wrap;html=1;aspect=fixed;fontSize=10;strokeColor=#FF0000;" vertex="1" parent="4muc2TcrfXr4DINt9mYG-144">
          <mxGeometry x="12.700000000000001" y="14.794117647058824" width="24.75" height="24.75" as="geometry" />
        </mxCell>
        <mxCell id="4muc2TcrfXr4DINt9mYG-147" value="" style="rounded=0;whiteSpace=wrap;html=1;fontSize=10;strokeColor=none;" vertex="1" parent="4muc2TcrfXr4DINt9mYG-144">
          <mxGeometry x="11.200000000000001" y="14.000000000000002" width="27" height="14.294117647058824" as="geometry" />
        </mxCell>
        <mxCell id="4muc2TcrfXr4DINt9mYG-148" value="" style="rounded=1;whiteSpace=wrap;html=1;fontSize=10;arcSize=50;strokeColor=#FF0000;" vertex="1" parent="4muc2TcrfXr4DINt9mYG-144">
          <mxGeometry x="18.5" y="8" width="13" height="26" as="geometry" />
        </mxCell>
        <mxCell id="4muc2TcrfXr4DINt9mYG-149" value="" style="endArrow=none;html=1;rounded=0;fontSize=10;entryX=0.5;entryY=1;entryDx=0;entryDy=0;strokeColor=#FF0000;" edge="1" parent="4muc2TcrfXr4DINt9mYG-144" target="4muc2TcrfXr4DINt9mYG-146">
          <mxGeometry width="50" height="50" relative="1" as="geometry">
            <mxPoint x="25.1" y="45" as="sourcePoint" />
            <mxPoint x="37.300000000000004" y="28.000000000000004" as="targetPoint" />
          </mxGeometry>
        </mxCell>
        <mxCell id="4muc2TcrfXr4DINt9mYG-150" value="" style="endArrow=none;html=1;rounded=0;fontSize=10;strokeColor=#FF0000;" edge="1" parent="4muc2TcrfXr4DINt9mYG-144">
          <mxGeometry width="50" height="50" relative="1" as="geometry">
            <mxPoint x="14.5" y="44.99999999999998" as="sourcePoint" />
            <mxPoint x="35.5" y="44.99999999999998" as="targetPoint" />
          </mxGeometry>
        </mxCell>
        <mxCell id="4muc2TcrfXr4DINt9mYG-154" style="edgeStyle=orthogonalEdgeStyle;rounded=0;orthogonalLoop=1;jettySize=auto;html=1;exitX=1;exitY=0.5;exitDx=0;exitDy=0;entryX=0.5;entryY=0;entryDx=0;entryDy=0;" edge="1" parent="1" source="4muc2TcrfXr4DINt9mYG-128" target="4muc2TcrfXr4DINt9mYG-163">
          <mxGeometry relative="1" as="geometry">
            <Array as="points">
              <mxPoint x="870" y="330" />
              <mxPoint x="870" y="470" />
              <mxPoint x="660" y="470" />
            </Array>
          </mxGeometry>
        </mxCell>
        <mxCell id="4muc2TcrfXr4DINt9mYG-155" value="&lt;div&gt;automated export&lt;/div&gt;&lt;div&gt;in &#39;language/sentence collector.txt&#39;&lt;br&gt;&lt;/div&gt;" style="edgeLabel;html=1;align=center;verticalAlign=middle;resizable=0;points=[];" vertex="1" connectable="0" parent="4muc2TcrfXr4DINt9mYG-154">
          <mxGeometry x="-0.1542" y="-2" relative="1" as="geometry">
            <mxPoint x="-29" as="offset" />
          </mxGeometry>
        </mxCell>
        <mxCell id="4muc2TcrfXr4DINt9mYG-156" style="edgeStyle=orthogonalEdgeStyle;rounded=0;orthogonalLoop=1;jettySize=auto;html=1;exitX=0.5;exitY=1;exitDx=0;exitDy=0;" edge="1" parent="1" source="4muc2TcrfXr4DINt9mYG-137" target="4muc2TcrfXr4DINt9mYG-122">
          <mxGeometry relative="1" as="geometry" />
        </mxCell>
        <mxCell id="4muc2TcrfXr4DINt9mYG-157" style="edgeStyle=orthogonalEdgeStyle;rounded=0;orthogonalLoop=1;jettySize=auto;html=1;exitX=0.5;exitY=1;exitDx=0;exitDy=0;entryX=0;entryY=0.5;entryDx=0;entryDy=0;" edge="1" parent="1" source="4muc2TcrfXr4DINt9mYG-132" target="4muc2TcrfXr4DINt9mYG-120">
          <mxGeometry relative="1" as="geometry" />
        </mxCell>
        <mxCell id="4muc2TcrfXr4DINt9mYG-158" style="edgeStyle=orthogonalEdgeStyle;rounded=0;orthogonalLoop=1;jettySize=auto;html=1;exitX=0.5;exitY=1;exitDx=0;exitDy=0;" edge="1" parent="1" source="4muc2TcrfXr4DINt9mYG-136" target="4muc2TcrfXr4DINt9mYG-125">
          <mxGeometry relative="1" as="geometry" />
        </mxCell>
        <mxCell id="4muc2TcrfXr4DINt9mYG-159" style="edgeStyle=orthogonalEdgeStyle;rounded=0;orthogonalLoop=1;jettySize=auto;html=1;exitX=1;exitY=0.5;exitDx=0;exitDy=0;" edge="1" parent="1" source="4muc2TcrfXr4DINt9mYG-127" target="4muc2TcrfXr4DINt9mYG-163">
          <mxGeometry relative="1" as="geometry" />
        </mxCell>
        <mxCell id="4muc2TcrfXr4DINt9mYG-167" value="? ?" style="edgeLabel;html=1;align=center;verticalAlign=middle;resizable=0;points=[];fontSize=10;" vertex="1" connectable="0" parent="4muc2TcrfXr4DINt9mYG-159">
          <mxGeometry x="-0.4694" relative="1" as="geometry">
            <mxPoint y="1" as="offset" />
          </mxGeometry>
        </mxCell>
        <mxCell id="4muc2TcrfXr4DINt9mYG-160" style="edgeStyle=orthogonalEdgeStyle;rounded=0;orthogonalLoop=1;jettySize=auto;html=1;exitX=0;exitY=0.5;exitDx=0;exitDy=0;" edge="1" parent="1" source="4muc2TcrfXr4DINt9mYG-139" target="4muc2TcrfXr4DINt9mYG-120">
          <mxGeometry relative="1" as="geometry" />
        </mxCell>
        <mxCell id="4muc2TcrfXr4DINt9mYG-161" style="edgeStyle=orthogonalEdgeStyle;rounded=0;orthogonalLoop=1;jettySize=auto;html=1;strokeColor=#FF0000;fontSize=10;" edge="1" parent="1" source="4muc2TcrfXr4DINt9mYG-163" target="4muc2TcrfXr4DINt9mYG-142">
          <mxGeometry relative="1" as="geometry">
            <Array as="points">
              <mxPoint x="250" y="610" />
            </Array>
          </mxGeometry>
        </mxCell>
        <mxCell id="4muc2TcrfXr4DINt9mYG-162" value="extract sentences" style="edgeLabel;html=1;align=center;verticalAlign=middle;resizable=0;points=[];fontSize=10;" vertex="1" connectable="0" parent="4muc2TcrfXr4DINt9mYG-161">
          <mxGeometry x="-0.1575" y="-1" relative="1" as="geometry">
            <mxPoint as="offset" />
          </mxGeometry>
        </mxCell>
        <mxCell id="4muc2TcrfXr4DINt9mYG-219" style="edgeStyle=orthogonalEdgeStyle;rounded=0;orthogonalLoop=1;jettySize=auto;html=1;strokeColor=#000000;fontSize=14;" edge="1" parent="1" source="4muc2TcrfXr4DINt9mYG-163" target="4muc2TcrfXr4DINt9mYG-221">
          <mxGeometry relative="1" as="geometry">
            <mxPoint x="660" y="900" as="targetPoint" />
          </mxGeometry>
        </mxCell>
        <mxCell id="4muc2TcrfXr4DINt9mYG-163" value="&lt;font style=&quot;font-size: 10px;&quot;&gt;Common Voice DB&lt;br&gt;&lt;/font&gt;" style="shape=datastore;whiteSpace=wrap;html=1;fillColor=#f5f5f5;fontColor=#333333;strokeColor=#666666;" vertex="1" parent="1">
          <mxGeometry x="630" y="590" width="60" height="60" as="geometry" />
        </mxCell>
        <mxCell id="4muc2TcrfXr4DINt9mYG-188" style="edgeStyle=orthogonalEdgeStyle;rounded=0;orthogonalLoop=1;jettySize=auto;html=1;entryX=0;entryY=0.7;entryDx=0;entryDy=0;strokeColor=#82B366;fontSize=11;" edge="1" parent="1" source="4muc2TcrfXr4DINt9mYG-143" target="4muc2TcrfXr4DINt9mYG-163">
          <mxGeometry relative="1" as="geometry" />
        </mxCell>
        <mxCell id="4muc2TcrfXr4DINt9mYG-189" value="&lt;div&gt;&lt;font style=&quot;font-size: 11px;&quot;&gt;add voices and flags &lt;br&gt;&lt;/font&gt;&lt;/div&gt;&lt;div&gt;&lt;font style=&quot;font-size: 11px;&quot;&gt;(validated, rejected...) &lt;br&gt;&lt;/font&gt;&lt;/div&gt;&lt;div&gt;&lt;font style=&quot;font-size: 11px;&quot;&gt;in the DB&lt;/font&gt;&lt;/div&gt;" style="edgeLabel;html=1;align=center;verticalAlign=middle;resizable=0;points=[];fontSize=11;" vertex="1" connectable="0" parent="4muc2TcrfXr4DINt9mYG-188">
          <mxGeometry x="-0.2562" y="1" relative="1" as="geometry">
            <mxPoint x="-14" y="-41" as="offset" />
          </mxGeometry>
        </mxCell>
        <mxCell id="4muc2TcrfXr4DINt9mYG-190" value="&lt;h1&gt;Oversimplified general overview of Common Voice processes&lt;br&gt;&lt;/h1&gt;&lt;p&gt;Below is a SIMPLIFIED overview of how is working Common Voice, to help you (and newcomers) to understand the project. &lt;br&gt;For more detailed in-depth understanding, go to dedicated README files and repositories.&lt;/p&gt;&lt;p&gt;&lt;i&gt;(Note to contributors : please keep it as an overview map, readable by noobs. Thanks for them.)&lt;/i&gt;&lt;/p&gt;&lt;p&gt;&lt;i&gt;To modify this file, go to https://app.diagrams.net, open the &#39;NameOfTheFile - source.drawio&#39;, modify, save, export as SVG, and upload both. &lt;br&gt;I don&#39;t know if the &#39;intelligence in the drawing&#39; held by .drawio file is available in SVG file. Please keep SOURCE.drawio file available for easier further modification&lt;br&gt;&lt;/i&gt;&lt;/p&gt;" style="text;html=1;strokeColor=none;fillColor=none;spacing=5;spacingTop=-20;whiteSpace=wrap;overflow=hidden;rounded=0;fontSize=11;" vertex="1" parent="1">
          <mxGeometry x="40" y="50" width="850" height="140" as="geometry" />
        </mxCell>
        <mxCell id="4muc2TcrfXr4DINt9mYG-191" value="" style="line;strokeWidth=2;html=1;strokeColor=#000000;fontSize=14;" vertex="1" parent="1">
          <mxGeometry x="80" y="530" width="1000" height="20" as="geometry" />
        </mxCell>
        <mxCell id="4muc2TcrfXr4DINt9mYG-180" value="&lt;b&gt;&lt;font style=&quot;font-size: 14px;&quot;&gt;recording voices&lt;/font&gt;&lt;/b&gt;" style="rounded=0;whiteSpace=wrap;html=1;strokeColor=#000000;fontSize=10;rotation=-90;" vertex="1" parent="1">
          <mxGeometry x="-110.00000000000001" y="690" width="340" height="40" as="geometry" />
        </mxCell>
        <mxCell id="4muc2TcrfXr4DINt9mYG-183" value="&lt;div&gt;&lt;b&gt;&lt;font style=&quot;font-size: 14px;&quot;&gt;generating corpora&lt;br&gt;&lt;/font&gt;&lt;/b&gt;&lt;/div&gt;&lt;div&gt;&lt;b&gt;&lt;font style=&quot;font-size: 14px;&quot;&gt;for STT engines training&lt;/font&gt;&lt;/b&gt;&lt;/div&gt;" style="rounded=0;whiteSpace=wrap;html=1;strokeColor=#000000;fontSize=10;rotation=-90;" vertex="1" parent="1">
          <mxGeometry x="-110.00000000000001" y="1030" width="340" height="40" as="geometry" />
        </mxCell>
        <mxCell id="4muc2TcrfXr4DINt9mYG-169" value="&lt;font style=&quot;font-size: 14px;&quot;&gt;&lt;b&gt;Importing written sentences&lt;br&gt;&lt;/b&gt;&lt;/font&gt;" style="rounded=0;whiteSpace=wrap;html=1;strokeColor=#000000;fontSize=10;rotation=-90;" vertex="1" parent="1">
          <mxGeometry x="-110.00000000000001" y="350" width="340" height="40" as="geometry" />
        </mxCell>
        <mxCell id="4muc2TcrfXr4DINt9mYG-139" value="automated validation &amp;amp; cleanup (can reject and/or transform sentences)" style="rounded=0;whiteSpace=wrap;html=1;fillColor=#f5f5f5;fontColor=#333333;strokeColor=#666666;" vertex="1" parent="1">
          <mxGeometry x="280" y="210" width="140" height="70" as="geometry" />
        </mxCell>
        <mxCell id="4muc2TcrfXr4DINt9mYG-128" value="auto GitHub action" style="shape=delay;whiteSpace=wrap;html=1;fillColor=#f5f5f5;fontColor=#333333;strokeColor=#666666;" vertex="1" parent="1">
          <mxGeometry x="710" y="310" width="80" height="40" as="geometry" />
        </mxCell>
        <mxCell id="4muc2TcrfXr4DINt9mYG-140" value="human validation of proposed sentences" style="rounded=0;whiteSpace=wrap;html=1;fillColor=#dae8fc;strokeColor=#6c8ebf;" vertex="1" parent="1">
          <mxGeometry x="510" y="310" width="120" height="40" as="geometry" />
        </mxCell>
        <mxCell id="4muc2TcrfXr4DINt9mYG-126" style="edgeStyle=orthogonalEdgeStyle;rounded=0;orthogonalLoop=1;jettySize=auto;html=1;exitX=1;exitY=0.5;exitDx=0;exitDy=0;entryX=0;entryY=0.5;entryDx=0;entryDy=0;" edge="1" parent="1" source="4muc2TcrfXr4DINt9mYG-140" target="4muc2TcrfXr4DINt9mYG-128">
          <mxGeometry relative="1" as="geometry">
            <mxPoint x="580.0000000000002" y="180" as="sourcePoint" />
            <mxPoint x="610.0000000000002" y="180" as="targetPoint" />
          </mxGeometry>
        </mxCell>
        <mxCell id="4muc2TcrfXr4DINt9mYG-130" value="&lt;font style=&quot;font-size: 10px;&quot;&gt;Sentence collector DB&lt;/font&gt;" style="shape=datastore;whiteSpace=wrap;html=1;fillColor=#f5f5f5;fontColor=#333333;strokeColor=#666666;" vertex="1" parent="1">
          <mxGeometry x="390" y="300" width="60" height="60" as="geometry" />
        </mxCell>
        <mxCell id="4muc2TcrfXr4DINt9mYG-131" style="edgeStyle=orthogonalEdgeStyle;rounded=0;orthogonalLoop=1;jettySize=auto;html=1;exitX=1;exitY=0.5;exitDx=0;exitDy=0;entryX=0;entryY=0.5;entryDx=0;entryDy=0;" edge="1" parent="1" source="4muc2TcrfXr4DINt9mYG-130" target="4muc2TcrfXr4DINt9mYG-140">
          <mxGeometry relative="1" as="geometry" />
        </mxCell>
        <mxCell id="4muc2TcrfXr4DINt9mYG-194" value="" style="line;strokeWidth=2;html=1;strokeColor=#000000;fontSize=14;" vertex="1" parent="1">
          <mxGeometry x="80" y="870" width="1000" height="20" as="geometry" />
        </mxCell>
        <mxCell id="4muc2TcrfXr4DINt9mYG-195" value="" style="line;strokeWidth=2;html=1;strokeColor=#000000;fontSize=14;" vertex="1" parent="1">
          <mxGeometry x="80" y="190" width="1000" height="20" as="geometry" />
        </mxCell>
        <mxCell id="4muc2TcrfXr4DINt9mYG-196" value="" style="line;strokeWidth=2;html=1;strokeColor=#000000;fontSize=14;" vertex="1" parent="1">
          <mxGeometry x="80" y="1210" width="1000" height="20" as="geometry" />
        </mxCell>
        <mxCell id="4muc2TcrfXr4DINt9mYG-143" value="Common Voice website shows sentences and play human voices for validation by humans" style="rounded=0;whiteSpace=wrap;html=1;fillColor=#d5e8d4;strokeColor=#82b366;" vertex="1" parent="1">
          <mxGeometry x="390" y="720" width="150" height="70" as="geometry" />
        </mxCell>
        <mxCell id="4muc2TcrfXr4DINt9mYG-197" value="" style="group" vertex="1" connectable="0" parent="1">
          <mxGeometry x="360" y="685" width="50" height="50" as="geometry" />
        </mxCell>
        <mxCell id="4muc2TcrfXr4DINt9mYG-152" value="" style="ellipse;whiteSpace=wrap;html=1;aspect=fixed;fontSize=10;" vertex="1" parent="4muc2TcrfXr4DINt9mYG-197">
          <mxGeometry width="50" height="50" as="geometry" />
        </mxCell>
        <mxCell id="4muc2TcrfXr4DINt9mYG-153" value="" style="triangle;whiteSpace=wrap;html=1;fontSize=10;direction=south;rotation=-90;fillColor=#d5e8d4;strokeColor=#82B366;" vertex="1" parent="4muc2TcrfXr4DINt9mYG-197">
          <mxGeometry x="12.25" y="14.75" width="30" height="22.5" as="geometry" />
        </mxCell>
        <mxCell id="4muc2TcrfXr4DINt9mYG-199" value="Corpus available for engine training" style="rounded=1;whiteSpace=wrap;html=1;fillColor=#dae8fc;arcSize=50;strokeColor=#6c8ebf;" vertex="1" parent="1">
          <mxGeometry x="850" y="1160" width="120" height="40" as="geometry" />
        </mxCell>
        <mxCell id="4muc2TcrfXr4DINt9mYG-206" style="edgeStyle=orthogonalEdgeStyle;rounded=0;orthogonalLoop=1;jettySize=auto;html=1;strokeColor=#000000;fontSize=14;entryX=0;entryY=0.5;entryDx=0;entryDy=0;" edge="1" parent="1" source="4muc2TcrfXr4DINt9mYG-201" target="4muc2TcrfXr4DINt9mYG-221">
          <mxGeometry relative="1" as="geometry">
            <mxPoint x="620" y="920" as="targetPoint" />
          </mxGeometry>
        </mxCell>
        <mxCell id="4muc2TcrfXr4DINt9mYG-201" value="Human request for corpus generation" style="rounded=1;whiteSpace=wrap;html=1;fillColor=#dae8fc;arcSize=50;strokeColor=#6c8ebf;" vertex="1" parent="1">
          <mxGeometry x="200" y="950" width="120" height="40" as="geometry" />
        </mxCell>
        <mxCell id="4muc2TcrfXr4DINt9mYG-202" value="" style="shape=actor;whiteSpace=wrap;html=1;fillColor=none;" vertex="1" parent="1">
          <mxGeometry x="160" y="920" width="20" height="30" as="geometry" />
        </mxCell>
        <mxCell id="4muc2TcrfXr4DINt9mYG-203" value="&quot;Let&#39;s go!&quot;" style="text;html=1;strokeColor=none;fillColor=none;align=left;verticalAlign=middle;whiteSpace=wrap;rounded=0;" vertex="1" parent="1">
          <mxGeometry x="190" y="920" width="120" height="30" as="geometry" />
        </mxCell>
        <mxCell id="4muc2TcrfXr4DINt9mYG-204" style="edgeStyle=orthogonalEdgeStyle;rounded=0;orthogonalLoop=1;jettySize=auto;html=1;exitX=0.5;exitY=1;exitDx=0;exitDy=0;" edge="1" source="4muc2TcrfXr4DINt9mYG-202" target="4muc2TcrfXr4DINt9mYG-201" parent="1">
          <mxGeometry relative="1" as="geometry" />
        </mxCell>
        <mxCell id="4muc2TcrfXr4DINt9mYG-212" style="edgeStyle=orthogonalEdgeStyle;rounded=0;orthogonalLoop=1;jettySize=auto;html=1;strokeColor=#000000;fontSize=14;" edge="1" parent="1" source="4muc2TcrfXr4DINt9mYG-205" target="4muc2TcrfXr4DINt9mYG-211">
          <mxGeometry relative="1" as="geometry" />
        </mxCell>
        <mxCell id="4muc2TcrfXr4DINt9mYG-205" value="randomly selected sentences + voices" style="rounded=0;whiteSpace=wrap;html=1;fillColor=#f5f5f5;fontColor=#333333;strokeColor=#666666;" vertex="1" parent="1">
          <mxGeometry x="600" y="980" width="120" height="40" as="geometry" />
        </mxCell>
        <mxCell id="4muc2TcrfXr4DINt9mYG-214" style="edgeStyle=orthogonalEdgeStyle;rounded=0;orthogonalLoop=1;jettySize=auto;html=1;strokeColor=#000000;fontSize=14;" edge="1" parent="1" source="4muc2TcrfXr4DINt9mYG-211" target="4muc2TcrfXr4DINt9mYG-213">
          <mxGeometry relative="1" as="geometry" />
        </mxCell>
        <mxCell id="4muc2TcrfXr4DINt9mYG-211" value="preprocessing (cleaning...)" style="rounded=0;whiteSpace=wrap;html=1;fillColor=#f5f5f5;fontColor=#333333;strokeColor=#666666;" vertex="1" parent="1">
          <mxGeometry x="600" y="1050" width="120" height="40" as="geometry" />
        </mxCell>
        <mxCell id="4muc2TcrfXr4DINt9mYG-215" style="edgeStyle=orthogonalEdgeStyle;rounded=0;orthogonalLoop=1;jettySize=auto;html=1;entryX=0;entryY=0.5;entryDx=0;entryDy=0;strokeColor=#000000;fontSize=14;exitX=0.5;exitY=1;exitDx=0;exitDy=0;" edge="1" parent="1" source="4muc2TcrfXr4DINt9mYG-213" target="4muc2TcrfXr4DINt9mYG-199">
          <mxGeometry relative="1" as="geometry" />
        </mxCell>
        <mxCell id="4muc2TcrfXr4DINt9mYG-213" value="? some magic happend ?" style="rounded=0;whiteSpace=wrap;html=1;fillColor=#f5f5f5;fontColor=#333333;strokeColor=#666666;" vertex="1" parent="1">
          <mxGeometry x="600" y="1120" width="120" height="40" as="geometry" />
        </mxCell>
        <mxCell id="4muc2TcrfXr4DINt9mYG-220" style="edgeStyle=orthogonalEdgeStyle;rounded=0;orthogonalLoop=1;jettySize=auto;html=1;strokeColor=#000000;fontSize=14;" edge="1" parent="1" source="4muc2TcrfXr4DINt9mYG-221" target="4muc2TcrfXr4DINt9mYG-205">
          <mxGeometry relative="1" as="geometry">
            <mxPoint x="660" y="930" as="sourcePoint" />
          </mxGeometry>
        </mxCell>
        <mxCell id="4muc2TcrfXr4DINt9mYG-221" value="starting corpus generation, &lt;br&gt;with input parameters" style="rounded=0;whiteSpace=wrap;html=1;fillColor=#dae8fc;strokeColor=#6c8ebf;" vertex="1" parent="1">
          <mxGeometry x="560" y="910" width="200" height="40" as="geometry" />
        </mxCell>
        <mxCell id="4muc2TcrfXr4DINt9mYG-223" value="gray things" style="rounded=0;whiteSpace=wrap;html=1;fillColor=#f5f5f5;fontColor=#333333;strokeColor=#666666;" vertex="1" parent="1">
          <mxGeometry x="50" y="1340" width="120" height="40" as="geometry" />
        </mxCell>
        <mxCell id="4muc2TcrfXr4DINt9mYG-224" value="blue things" style="rounded=0;whiteSpace=wrap;html=1;fillColor=#dae8fc;strokeColor=#6c8ebf;" vertex="1" parent="1">
          <mxGeometry x="50" y="1290" width="120" height="40" as="geometry" />
        </mxCell>
        <mxCell id="4muc2TcrfXr4DINt9mYG-226" value="&lt;div style=&quot;font-size: 14px;&quot;&gt;Legend&lt;/div&gt;" style="rounded=0;whiteSpace=wrap;html=1;strokeColor=#000000;fontSize=10;rotation=0;" vertex="1" parent="1">
          <mxGeometry x="40" y="1240" width="440" height="40" as="geometry" />
        </mxCell>
        <mxCell id="4muc2TcrfXr4DINt9mYG-228" value="" style="line;strokeWidth=2;direction=south;html=1;strokeColor=#000000;fontSize=14;fillColor=none;" vertex="1" parent="1">
          <mxGeometry x="30" y="1280" width="20" height="160" as="geometry" />
        </mxCell>
        <mxCell id="4muc2TcrfXr4DINt9mYG-229" value="red and..." style="rounded=0;whiteSpace=wrap;html=1;fillColor=#f8cecc;strokeColor=#b85450;" vertex="1" parent="1">
          <mxGeometry x="50" y="1390" width="120" height="20" as="geometry" />
        </mxCell>
        <mxCell id="4muc2TcrfXr4DINt9mYG-230" value="...green things" style="rounded=0;whiteSpace=wrap;html=1;fillColor=#d5e8d4;strokeColor=#82b366;" vertex="1" parent="1">
          <mxGeometry x="50" y="1410" width="120" height="20" as="geometry" />
        </mxCell>
        <mxCell id="4muc2TcrfXr4DINt9mYG-231" value="Human interactions" style="text;html=1;strokeColor=none;fillColor=none;align=left;verticalAlign=middle;whiteSpace=wrap;rounded=0;fontSize=14;" vertex="1" parent="1">
          <mxGeometry x="180" y="1295" width="200" height="30" as="geometry" />
        </mxCell>
        <mxCell id="4muc2TcrfXr4DINt9mYG-232" value="automated scripts" style="text;html=1;strokeColor=none;fillColor=none;align=left;verticalAlign=middle;whiteSpace=wrap;rounded=0;fontSize=14;" vertex="1" parent="1">
          <mxGeometry x="180" y="1345" width="200" height="30" as="geometry" />
        </mxCell>
        <mxCell id="4muc2TcrfXr4DINt9mYG-233" value="the Common Voice website &lt;br&gt;(and it&#39;s associated processes, not shown)" style="text;html=1;strokeColor=none;fillColor=none;align=left;verticalAlign=middle;whiteSpace=wrap;rounded=0;fontSize=14;" vertex="1" parent="1">
          <mxGeometry x="180" y="1390" width="300" height="40" as="geometry" />
        </mxCell>
        <mxCell id="4muc2TcrfXr4DINt9mYG-236" value="&lt;div align=&quot;left&quot;&gt;&lt;font color=&quot;#B266FF&quot;&gt;&lt;i&gt;To be clarified &lt;/i&gt;&lt;br&gt;&lt;/font&gt;&lt;/div&gt;" style="text;html=1;strokeColor=none;fillColor=none;align=left;verticalAlign=middle;whiteSpace=wrap;rounded=0;fillStyle=hachure;fontSize=14;" vertex="1" parent="1">
          <mxGeometry x="640" y="370" width="210" height="30" as="geometry" />
        </mxCell>
        <mxCell id="4muc2TcrfXr4DINt9mYG-237" value="&lt;div align=&quot;left&quot;&gt;&lt;font color=&quot;#B266FF&quot;&gt;&lt;i&gt;To be clarified &lt;/i&gt;&lt;br&gt;&lt;/font&gt;&lt;/div&gt;" style="text;html=1;strokeColor=none;fillColor=none;align=left;verticalAlign=middle;whiteSpace=wrap;rounded=0;fillStyle=hachure;fontSize=14;" vertex="1" parent="1">
          <mxGeometry x="760" y="1090" width="210" height="30" as="geometry" />
        </mxCell>
      </root>
    </mxGraphModel>
  </diagram>
</mxfile>
